<?xml version="1.0" encoding="utf-8"?>
<!-- Generator: Adobe Illustrator 16.0.0, SVG Export Plug-In . SVG Version: 6.00 Build 0)  -->
<!DOCTYPE svg PUBLIC "-//W3C//DTD SVG 1.1//EN" "http://www.w3.org/Graphics/SVG/1.1/DTD/svg11.dtd">
<svg version="1.1" id="saved-view-button" xmlns="http://www.w3.org/2000/svg" xmlns:xlink="http://www.w3.org/1999/xlink" x="0px"
	 y="0px" width="18.5px" height="23.375px" viewBox="0 0 18.5 23.375" enable-background="new 0 0 18.5 23.375"
	 xml:space="preserve">
<path fill="transparent" stroke="#ccc" stroke-width="1" stroke-miterlimit="10" d="M17.625,19.838c0,1.608-0.992,2.912-2.217,2.912H3.092
	c-1.224,0-2.217-1.304-2.217-2.912V3.662c0-1.608,0.993-2.912,2.217-2.912h12.316c1.225,0,2.217,1.304,2.217,2.912V19.838z"/>
<path fill="#aaa" d="M14.164,10.265c-0.084-0.261-0.44-0.391-1.068-0.391h-2.393l-0.73-2.191V7.672
	C9.839,7.27,9.688,7.002,9.519,6.868c-0.185-0.141-0.36-0.141-0.53,0C8.812,7.009,8.661,7.277,8.534,7.672l-0.37,1.101l-0.36,1.101
	H5.422c-0.353,0-0.642,0.051-0.868,0.153c-0.225,0.103-0.289,0.273-0.19,0.513c0.085,0.212,0.293,0.435,0.625,0.667l0.963,0.688
	l0.963,0.698l-0.72,2.191l-0.021,0.021C5.982,15.398,6,15.779,6.226,15.949c0.213,0.155,0.59,0.049,1.134-0.317l1.904-1.355
	l1.895,1.355l0.021,0.021c0.515,0.367,0.885,0.466,1.111,0.296c0.226-0.169,0.24-0.551,0.042-1.143l-0.011-0.011v-0.021l-0.72-2.181
	l1.874-1.344l0.021-0.021l0.021-0.021C14.033,10.84,14.248,10.526,14.164,10.265z"/>
</svg>
