<svg version="1.1" id="Layer_1" xmlns="http://www.w3.org/2000/svg" xmlns:xlink="http://www.w3.org/1999/xlink" x="0px" y="0px"
	 width="1088px" height="1026px" viewBox="-41.75 -43.75 1088 1026" enable-background="new -41.75 -43.75 1088 1026" style="fill:#ddd;stroke:#999;stroke-width:70px;"
	 xml:space="preserve">
<path d="M995.711,355.384c-8.54-26.336-44.482-39.502-107.829-39.502H646.599L572.934,94.884v-1.068
	c-13.522-40.569-28.824-67.617-45.906-81.139c-18.506-14.236-36.299-14.236-53.381,0c-17.795,14.233-33.098,41.28-45.908,81.139
	L390.37,204.849l-36.299,111.033H113.856c-35.587,0-64.769,5.159-87.545,15.48c-22.775,10.32-29.181,27.579-19.217,51.78
	c8.542,21.353,29.538,43.772,62.99,67.26l97.154,69.395l97.153,70.465l-72.598,220.997l-2.136,2.136
	c-19.217,59.787-17.437,98.222,5.338,115.304c21.353,15.657,59.432,4.981,114.236-32.028l192.172-136.655L692.507,896.67
	l2.135,2.135c51.958,37.012,89.324,46.977,112.102,29.895c22.776-17.082,24.2-55.517,4.271-115.304l-1.066-1.067v-2.135
	l-72.6-219.931l188.971-135.588l2.136-2.136l2.135-2.135C982.544,413.389,1004.253,381.717,995.711,355.384z"/>
</svg>
